<?xml version="1.0" encoding="UTF-8"?>
<svg xmlns="http://www.w3.org/2000/svg" xmlns:xlink="http://www.w3.org/1999/xlink"
     width="390" height="844" viewBox="0 0 390 844">
<defs>
</defs>
<rect x="0" y="0" width="390" height="844" rx="40" ry="40" fill="#F8F8F8" />
<rect x="0" y="0" width="390" height="44" rx="40" ry="40" fill="white" />
<rect x="0" y="44" width="390" height="50" fill="white" />
<text x="195.0" y="74" font-size="24" text-anchor="middle" fill="#333333" font-weight="bold">Home</text>
<rect x="0" y="764" width="390" height="80" rx="0" ry="0" fill="white" />
<circle cx="78.0" cy="794" r="15" fill="lightgray" />
<text x="78.0" y="824" font-size="12" text-anchor="middle" fill="#333333">Home</text>
<circle cx="156.0" cy="794" r="15" fill="#4A80F0" />
<text x="156.0" y="824" font-size="12" text-anchor="middle" fill="#333333">Tasks</text>
<circle cx="234.0" cy="794" r="15" fill="lightgray" />
<text x="234.0" y="824" font-size="12" text-anchor="middle" fill="#333333">Calendar</text>
<circle cx="312.0" cy="794" r="15" fill="lightgray" />
<text x="312.0" y="824" font-size="12" text-anchor="middle" fill="#333333">Profile</text>
<rect x="20" y="110" width="350" height="80" rx="10" ry="10" fill="white" />
<text x="40" y="140" font-size="20" fill="#333333" font-weight="bold">Welcome back, Alex!</text>
<text x="40" y="170" font-size="16" fill="#777777">You have 3 tasks today</text>
<text x="30" y="220" font-size="18" fill="#333333" font-weight="bold">Today's Tasks</text>
<rect x="20" y="240" width="350" height="80" rx="10" ry="10" fill="white" />
<rect x="20" y="240" width="10" height="80" rx="5" ry="5" fill="#4A80F0" />
<text x="50" y="270" font-size="18" fill="#333333" font-weight="bold">Prepare Dinner</text>
<text x="50" y="295" font-size="14" fill="#777777">6:00 PM</text>
<circle cx="330" cy="280" r="15" fill="none" stroke="#777777" stroke-width="2" />
<rect x="20" y="330" width="350" height="80" rx="10" ry="10" fill="white" />
<rect x="20" y="330" width="10" height="80" rx="5" ry="5" fill="#F5A623" />
<text x="50" y="360" font-size="18" fill="#333333" font-weight="bold">Laundry</text>
<text x="50" y="385" font-size="14" fill="#777777">8:00 PM</text>
<circle cx="330" cy="370" r="15" fill="none" stroke="#777777" stroke-width="2" />
<text x="30" y="440" font-size="18" fill="#333333" font-weight="bold">Upcoming</text>
<rect x="20" y="460" width="350" height="180" rx="10" ry="10" fill="white" />
<text x="45.0" y="485" font-size="14" text-anchor="middle" fill="#777777">M</text>
<circle cx="45.0" cy="520" r="18" fill="white" />
<text x="45.0" y="525" font-size="16" text-anchor="middle" fill="#333333">20</text>
<circle cx="45.0" cy="555" r="4" fill="#F5A623" />
<text x="95.0" y="485" font-size="14" text-anchor="middle" fill="#777777">T</text>
<circle cx="95.0" cy="520" r="18" fill="white" />
<text x="95.0" y="525" font-size="16" text-anchor="middle" fill="#333333">21</text>
<text x="145.0" y="485" font-size="14" text-anchor="middle" fill="#777777">W</text>
<circle cx="145.0" cy="520" r="18" fill="#4A80F0" />
<text x="145.0" y="525" font-size="16" text-anchor="middle" fill="white">22</text>
<circle cx="145.0" cy="555" r="4" fill="#4A80F0" />
<text x="195.0" y="485" font-size="14" text-anchor="middle" fill="#777777">T</text>
<circle cx="195.0" cy="520" r="18" fill="white" />
<text x="195.0" y="525" font-size="16" text-anchor="middle" fill="#333333">23</text>
<text x="245.0" y="485" font-size="14" text-anchor="middle" fill="#777777">F</text>
<circle cx="245.0" cy="520" r="18" fill="white" />
<text x="245.0" y="525" font-size="16" text-anchor="middle" fill="#333333">24</text>
<circle cx="245.0" cy="555" r="4" fill="#4A80F0" />
<text x="295.0" y="485" font-size="14" text-anchor="middle" fill="#777777">S</text>
<circle cx="295.0" cy="520" r="18" fill="white" />
<text x="295.0" y="525" font-size="16" text-anchor="middle" fill="#333333">25</text>
<text x="345.0" y="485" font-size="14" text-anchor="middle" fill="#777777">S</text>
<circle cx="345.0" cy="520" r="18" fill="white" />
<text x="345.0" y="525" font-size="16" text-anchor="middle" fill="#333333">26</text>
<circle cx="340" cy="744" r="30" fill="#4A80F0" />
<text x="340" y="756" font-size="40" text-anchor="middle" fill="white" font-weight="bold">+</text>
</svg>