<?xml version="1.0" encoding="UTF-8"?>
<svg xmlns="http://www.w3.org/2000/svg" xmlns:xlink="http://www.w3.org/1999/xlink"
     width="390" height="844" viewBox="0 0 390 844">
<defs>
</defs>
<rect x="0" y="0" width="390" height="844" rx="40" ry="40" fill="#F8F8F8" />
<rect x="0" y="0" width="390" height="44" rx="40" ry="40" fill="white" />
<rect x="0" y="44" width="390" height="50" fill="white" />
<text x="195.0" y="74" font-size="24" text-anchor="middle" fill="#333333" font-weight="bold">Tasks</text>
<rect x="0" y="764" width="390" height="80" rx="0" ry="0" fill="white" />
<circle cx="78.0" cy="794" r="15" fill="lightgray" />
<text x="78.0" y="824" font-size="12" text-anchor="middle" fill="#333333">Home</text>
<circle cx="156.0" cy="794" r="15" fill="#4A80F0" />
<text x="156.0" y="824" font-size="12" text-anchor="middle" fill="#333333">Tasks</text>
<circle cx="234.0" cy="794" r="15" fill="lightgray" />
<text x="234.0" y="824" font-size="12" text-anchor="middle" fill="#333333">Calendar</text>
<circle cx="312.0" cy="794" r="15" fill="lightgray" />
<text x="312.0" y="824" font-size="12" text-anchor="middle" fill="#333333">Profile</text>
<rect x="0.0" y="110" width="130.0" height="40" fill="#4A80F0" />
<text x="65.0" y="135" font-size="16" text-anchor="middle" fill="white" font-weight="bold">All</text>
<rect x="130.0" y="110" width="130.0" height="40" fill="white" />
<text x="195.0" y="135" font-size="16" text-anchor="middle" fill="#333333" font-weight="bold">Mine</text>
<rect x="260.0" y="110" width="130.0" height="40" fill="white" />
<text x="325.0" y="135" font-size="16" text-anchor="middle" fill="#333333" font-weight="bold">Shared</text>
<rect x="20" y="170" width="350" height="80" rx="10" ry="10" fill="white" />
<text x="60" y="200" font-size="18" fill="#333333" font-weight="bold" text-decoration="">Prepare Dinner</text>
<text x="60" y="225" font-size="14" fill="#777777">You • Today 6:00 PM</text>
<circle cx="330" cy="210" r="15" fill="none" stroke="#777777" stroke-width="2" />
<rect x="20" y="260" width="350" height="80" rx="10" ry="10" fill="white" />
<text x="60" y="290" font-size="18" fill="#333333" font-weight="bold" text-decoration="">Laundry</text>
<text x="60" y="315" font-size="14" fill="#777777">You • Today 8:00 PM</text>
<circle cx="330" cy="300" r="15" fill="none" stroke="#777777" stroke-width="2" />
<rect x="20" y="350" width="350" height="80" rx="10" ry="10" fill="white" />
<text x="60" y="380" font-size="18" fill="#333333" font-weight="bold" text-decoration="">Clean Kitchen</text>
<text x="60" y="405" font-size="14" fill="#777777">Sam • Tomorrow 10:00 AM</text>
<circle cx="330" cy="390" r="15" fill="none" stroke="#777777" stroke-width="2" />
<rect x="20" y="440" width="350" height="80" rx="10" ry="10" fill="#F0F0F0" />
<text x="60" y="470" font-size="18" fill="#777777" font-weight="bold" text-decoration="line-through">Grocery Shopping</text>
<text x="60" y="495" font-size="14" fill="#777777">Alex • Wed 5:00 PM</text>
<circle cx="330" cy="480" r="15" fill="#4CAF50" />
<path d="M322,480 L330,488" stroke="white" stroke-width="2" />
<path d="M330,488 L338,472" stroke="white" stroke-width="2" />
<rect x="20" y="530" width="350" height="80" rx="10" ry="10" fill="#F0F0F0" />
<text x="60" y="560" font-size="18" fill="#777777" font-weight="bold" text-decoration="line-through">Take Out Trash</text>
<text x="60" y="585" font-size="14" fill="#777777">You • Yesterday 8:00 PM</text>
<circle cx="330" cy="570" r="15" fill="#4CAF50" />
<path d="M322,570 L330,578" stroke="white" stroke-width="2" />
<path d="M330,578 L338,562" stroke="white" stroke-width="2" />
</svg>